<?xml version="1.0" encoding="UTF-8"?>
<svg id="Layer_1" data-name="Layer 1" xmlns="http://www.w3.org/2000/svg" viewBox="0 0 1381.58 100">
  <defs>
    <style>
      .cls-1 {
        fill-rule: evenodd;
      }

      .cls-1, .cls-2 {
        fill: #fff;
      }

      .cls-3 {
        fill: #f1f1f2;
      }
    </style>
  </defs>
  <rect width="1381.58" height="100"/>
  <g>
    <path class="cls-2" d="M83.22,31.18c-2.02-5.27-5.54-9.58-9.97-12.25-.28-.17-.57-.33-.85-.49-5.46-2.95-11.72-3.21-18.11-.77l-23.52,9.07,21.22,57.62,6.61-2.55.2-1.72,1.79-15.66,10.21-3.94c6.37-2.46,10.84-6.83,12.91-12.65,1.84-5.15,1.67-11.07-.48-16.66Z"/>
    <g>
      <g>
        <path class="cls-3" d="M100.73,61.12c0-.48.36-.85.85-.85s.85.37.85.85-.36.86-.85.86-.85-.37-.85-.86ZM100.91,70.47v-7.07h1.34v7.07h-1.34Z"/>
        <path class="cls-3" d="M107.61,70.47v-10.63h1.34v10.63h-1.34Z"/>
        <path class="cls-3" d="M113.83,66.93c0-2.08,1.59-3.68,3.65-3.68s3.34,1.46,3.34,3.47c0,.19-.01.42-.07.71h-5.54c.04.28.13.52.25.74.4.76,1.16,1.18,2.11,1.18.79,0,1.47-.28,1.95-.83l.86.88c-.67.79-1.7,1.22-2.81,1.22-2.11,0-3.74-1.59-3.74-3.69ZM119.51,66.32c-.03-.3-.1-.57-.22-.79-.34-.66-.95-1.04-1.83-1.04s-1.64.42-2.01,1.13c-.1.21-.19.45-.24.7h4.3Z"/>
        <path class="cls-3" d="M131.78,65.29c0-2.98,2.28-5.3,5.29-5.3,1.65,0,3.08.66,4.02,1.85l-.97.97c-.66-.95-1.79-1.47-3.05-1.47-2.28,0-3.84,1.64-3.84,3.96s1.61,3.98,3.72,3.98c1.44,0,2.53-.57,3.11-1.65.21-.39.34-.85.4-1.37h-3.59v-1.28h5.06v.21c0,3.6-2.05,5.45-4.96,5.45s-5.2-2.35-5.2-5.33Z"/>
        <path class="cls-3" d="M151.72,63.4h1.33v7.09h-.98l-.34-.91v-.04c-.24.28-.49.54-.82.74-.42.24-.91.36-1.44.36s-1.01-.13-1.41-.4c-.42-.27-.74-.63-.98-1.06s-.36-.88-.36-1.37v-4.41h1.34v4.14c0,.54.16.97.52,1.31.33.36.76.54,1.3.54.36,0,.67-.09.95-.24.28-.16.49-.37.66-.66.16-.28.25-.61.25-.95v-4.14ZM147.56,61.34c0-.48.36-.85.85-.85s.85.37.85.85-.36.86-.85.86-.85-.37-.85-.86ZM150.54,61.34c0-.48.36-.85.85-.85s.85.37.85.85-.36.86-.85.86-.85-.37-.85-.86Z"/>
        <path class="cls-3" d="M160.72,70.47l-3.25-7.07h1.49l2.17,4.99,2.19-4.99h1.43l-3.25,7.07h-.79Z"/>
        <path class="cls-3" d="M168.9,66.93c0-2.08,1.59-3.68,3.65-3.68s3.34,1.46,3.34,3.47c0,.19-.01.42-.07.71h-5.54c.04.28.13.52.25.74.4.76,1.16,1.18,2.11,1.18.79,0,1.47-.28,1.95-.83l.86.88c-.67.79-1.7,1.22-2.81,1.22-2.11,0-3.74-1.59-3.74-3.69ZM174.57,66.32c-.03-.3-.1-.57-.22-.79-.34-.66-.95-1.04-1.83-1.04s-1.64.42-2.01,1.13c-.1.21-.19.45-.24.7h4.3Z"/>
        <path class="cls-3" d="M187.17,66.08v4.38h-1.34v-4.11c0-.54-.16-.98-.51-1.33s-.76-.52-1.31-.52c-.36,0-.67.07-.94.24-.3.16-.51.37-.67.66-.15.27-.22.6-.22.95v4.11h-1.34v-7.06h.98l.36.89v.06c.21-.3.46-.57.79-.74.43-.24.91-.36,1.46-.36.52,0,1,.13,1.4.39.42.28.74.63.98,1.07.22.42.36.88.36,1.37Z"/>
        <path class="cls-3" d="M192.48,70.47v-10.63h1.34v10.63h-1.34Z"/>
        <path class="cls-3" d="M199.01,61.12c0-.48.36-.85.85-.85s.85.37.85.85-.36.86-.85.86-.85-.37-.85-.86ZM199.19,70.47v-7.07h1.34v7.07h-1.34Z"/>
        <path class="cls-3" d="M211.71,65.29c0-2.98,2.26-5.3,5.2-5.3s5.23,2.32,5.23,5.32-2.29,5.32-5.2,5.32-5.23-2.38-5.23-5.33ZM220.69,65.29c0-2.29-1.59-3.96-3.78-3.96s-3.75,1.64-3.75,3.96,1.55,3.99,3.75,3.99,3.78-1.67,3.78-3.99ZM214.58,58.08c0-.48.36-.85.85-.85s.85.37.85.85-.36.86-.85.86-.85-.37-.85-.86ZM217.56,58.08c0-.48.36-.85.85-.85s.85.37.85.85-.36.86-.85.86-.85-.37-.85-.86Z"/>
        <path class="cls-3" d="M232.54,59.84h1.35v10.63h-.98l-.37-.97v-.02c-.24.33-.54.61-.92.79-.42.24-.91.34-1.44.34-.65,0-1.25-.15-1.76-.48-.52-.33-.92-.77-1.24-1.33-.3-.57-.45-1.18-.45-1.86s.15-1.34.45-1.89c.31-.55.71-1.01,1.24-1.31.51-.34,1.1-.51,1.76-.51.52,0,1.01.1,1.43.33.39.21.68.48.94.82v-4.56ZM232.35,68.18c.18-.36.28-.77.28-1.22,0-.51-.1-.92-.3-1.28-.19-.36-.45-.64-.77-.85-.34-.21-.71-.31-1.18-.31s-.85.1-1.18.31c-.34.21-.61.49-.79.85-.21.37-.3.77-.3,1.27,0,.46.09.88.3,1.24.18.37.45.66.79.88.34.19.74.3,1.19.3s.83-.1,1.18-.3c.33-.22.58-.51.77-.88Z"/>
        <path class="cls-3" d="M238.81,66.93c0-2.08,1.59-3.68,3.65-3.68s3.34,1.46,3.34,3.47c0,.19-.01.42-.07.71h-5.54c.04.28.13.52.25.74.4.76,1.16,1.18,2.11,1.18.79,0,1.47-.28,1.95-.83l.86.88c-.67.79-1.7,1.22-2.81,1.22-2.11,0-3.74-1.59-3.74-3.69ZM244.48,66.32c-.03-.3-.1-.57-.22-.79-.34-.66-.95-1.04-1.83-1.04s-1.64.42-2.01,1.13c-.1.21-.19.45-.24.7h4.3Z"/>
      </g>
      <path class="cls-1" d="M233.72,39.56l-9.47-10.5h-2.28v24.25h6.32v-10.78l5.11,5.39h.69l5.15-5.39v10.78h6.32v-24.25h-2.21l-9.63,10.5ZM174.55,44.74c6.11-4.15,4.38-15.58-5.11-15.61h-10.6v24.18h2.95l3.23-7.11h3.21l4.14,7.11h6.91v-.9l-4.73-7.67ZM169.44,40.69h-4.42v-6.04c1.45,0,2.97-.03,4.42,0,3.52.03,3.34,6.04,0,6.04M143.67,53.3h6.04v-.9l-10.92-23.59h-2.66l-10.88,23.59v.9h6.05l1.41-3.04h9.53l1.42,3.04ZM140.25,44.98h-5.53l2.73-6.35,2.8,6.35ZM102.73,53.3l3.23-6.18h4.46c11.57,0,11.57-17.96,0-18h-10.64v24.18h2.95ZM110.38,41.56h-4.42v-6.91c1.42,0,2.97-.03,4.42,0,3.59.03,3.39,6.91,0,6.91M206.8,53.3h6.05v-.9l-10.92-23.59h-2.66l-10.88,23.59v.9h6.04l1.42-3.04h9.53l1.41,3.04ZM203.39,44.98h-5.53l2.73-6.35,2.8,6.35Z"/>
    </g>
  </g>
  <path class="cls-1" d="M495.48,68.55h-10.12l-7.59-28.94c-.36-1.33-1.12-2.51-2.25-3.06-2.81-1.39-5.9-2.5-9.27-3.06v-1.11h16.3c2.25,0,3.94,1.67,4.22,3.62l3.94,20.88,10.11-24.5h9.84l-15.17,36.18ZM516.28,68.55h-9.55l7.87-36.18h9.55l-7.87,36.18ZM536.51,42.39c.28-1.95,1.97-3.06,3.94-3.06,3.09-.28,6.46.28,9.27,1.67l1.69-7.79c-2.81-1.11-5.9-1.67-8.71-1.67-9.27,0-16.02,5.01-16.02,11.97,0,5.29,4.78,8.07,8.15,9.74,3.65,1.67,5.06,2.78,4.78,4.45,0,2.5-2.81,3.62-5.62,3.62-3.37,0-6.75-.83-9.84-2.23l-1.69,7.8c3.37,1.39,7.02,1.95,10.4,1.95,10.4.27,16.86-4.73,16.86-12.25,0-9.46-13.21-10.02-13.21-14.19ZM583.16,68.55l-7.59-36.18h-8.15c-1.69,0-3.37,1.11-3.94,2.78l-14.05,33.4h9.84l1.96-5.29h12.09l1.12,5.29h8.71ZM568.83,42.11l2.81,13.64h-7.87l5.06-13.64Z"/>
  <g>
    <path class="cls-1" d="M753.59,32.56c-1.57,0-3.31.88-4,2.45l-7.35,16.85-2.65-16.85c-.31-1.58-1.38-2.45-3.08-2.45h-9.31l7.97,27.99c.15.54.17,1.13.07,1.76-.42,2.34-2.65,4.23-4.98,4.23h-5.22c-1.32,0-2.2.82-2.62,2.68l-1.16,6.94h9.19c4.79,0,10.42-2.41,14.17-9.07l18.39-34.53h-9.41Z"/>
    <path class="cls-1" d="M663.17,24.21c2.75,0,4.08,1.1,3.6,3.85l-.79,4.49h6.32l-1.39,7.89h-6.32l-1.72,9.77c-.6,3.4,2.77,3.86,4.71,3.86.39,0,.71,0,.93-.02l-1.55,8.8c-.48.05-.97.12-2.01.12-4.8,0-13.87-1.29-12.09-11.41l1.95-11.11h-4.61l1.39-7.89h4.56l1.47-8.35h5.55Z"/>
    <path class="cls-1" d="M716.28,32.92l-1.62,9.2c2,1.02,3.37,3.1,3.37,5.5,0,3.16-2.37,5.75-5.42,6.13l-1.62,9.2c.29.02.58.03.87.03,8.49,0,15.36-6.88,15.36-15.35,0-6.93-4.6-12.8-10.93-14.7"/>
    <path class="cls-1" d="M709.05,53.12c-2-1.02-3.37-3.1-3.37-5.5,0-3.14,2.38-5.75,5.43-6.12l1.62-9.2c-.29-.02-.58-.03-.87-.03-8.48,0-15.35,6.88-15.35,15.35,0,6.93,4.6,12.8,10.93,14.71l1.62-9.21Z"/>
    <path class="cls-1" d="M675.96,32.56h5.43c2.75,0,4.08,1.1,3.59,3.86l-.59,3.34c2.02-4.11,6.41-7.5,10.91-7.5.59,0,1.16.12,1.16.12l-1.75,9.95s-.79-.18-2.02-.18c-2.4,0-6.46.76-8.71,5.27-.54,1.11-.95,2.46-1.24,4.09l-1.96,11.18h-10.12l5.31-30.12Z"/>
    <path class="cls-1" d="M760.53,63.37c0-.18-.06-.33-.19-.45-.13-.12-.29-.18-.48-.18h-.66v1.25h.66c.2,0,.36-.06.48-.17.13-.12.19-.26.19-.45M761.12,65.87h-.58l-.82-1.45h-.54v1.45h-.49v-3.56h1.21c.31,0,.58.11.79.31.22.2.33.46.33.76,0,.49-.26.82-.77.98l.85,1.52ZM762.5,64.09c0,.77-.27,1.42-.81,1.96-.53.54-1.18.81-1.93.81s-1.39-.27-1.93-.81c-.53-.54-.79-1.19-.79-1.96s.26-1.42.79-1.96c.54-.54,1.18-.81,1.93-.81s1.4.27,1.93.81c.54.54.81,1.19.81,1.96M763.01,64.09c0,.9-.32,1.67-.95,2.3-.63.63-1.39.96-2.3.96s-1.66-.32-2.3-.96c-.63-.63-.95-1.4-.95-2.3s.32-1.66.95-2.3c.64-.63,1.4-.95,2.3-.95s1.67.32,2.3.95c.63.64.95,1.4.95,2.3"/>
  </g>
  <g>
    <g>
      <path class="cls-2" d="M1310.31,73.24l-4.19-4.68-4.35,4.68h-26.45v-21.29h-8.71l10.64-24.03h10.32l3.71,8.22v-8.22h12.74l2.1,6.29,2.1-6.29h9.68v-3.55c0-2.1-1.77-4.03-4.03-4.03h-85.15c-2.26.16-4.03,1.94-4.03,4.03v51.6c0,2.1,1.77,4.03,4.03,4.03h85.47c2.1,0,4.03-1.77,4.03-4.03v-2.58l-7.9-.16Z"/>
      <g>
        <polygon class="cls-2" points="1311.44 70.82 1318.05 70.82 1309.35 61.47 1318.05 52.28 1311.6 52.28 1305.96 58.25 1300.64 52.28 1293.87 52.28 1302.73 61.63 1293.87 70.82 1300.32 70.82 1305.96 64.86 1311.44 70.82"/>
        <polygon class="cls-2" points="1283.22 66.47 1283.22 63.73 1293.54 63.73 1293.54 59.37 1283.22 59.37 1283.22 56.63 1293.87 56.63 1293.87 52.28 1278.06 52.28 1278.06 70.82 1293.87 70.82 1293.87 66.47 1283.22 66.47"/>
        <polygon class="cls-2" points="1313.06 49.54 1318.05 49.54 1318.05 30.83 1310.31 30.99 1306.12 42.6 1301.93 30.99 1293.87 30.99 1293.87 49.54 1299.03 49.54 1299.03 36.48 1303.86 49.54 1308.38 49.54 1313.06 36.48 1313.06 49.54"/>
        <path class="cls-2" d="M1285.64,30.99h-6.61l-8.22,18.71h5.64l1.45-3.87h8.55l1.61,3.87h5.81l-8.22-18.71ZM1279.67,41.64l2.42-6.13,2.42,6.13h-4.84Z"/>
      </g>
    </g>
    <polygon class="cls-2" points="1313.38 60.99 1318.05 65.99 1318.22 55.83 1313.38 60.99"/>
  </g>
  <path class="cls-2" d="M328.55,83.39v-4.45c0-1.68-1.07-2.8-2.79-2.82-.9-.01-1.84.27-2.49,1.26-.49-.79-1.26-1.26-2.34-1.26-.76,0-1.5.22-2.08,1.05v-.87h-1.54v7.09h1.56v-3.93c0-1.23.68-1.88,1.73-1.88s1.54.67,1.54,1.87v3.94h1.56v-3.93c0-1.23.71-1.88,1.73-1.88s1.56.67,1.56,1.87v3.94h1.56ZM351.59,76.31h-2.52v-2.15h-1.56v2.15h-1.44v1.41h1.44v3.23c0,1.65.64,2.62,2.46,2.62.67,0,1.44-.21,1.93-.55l-.44-1.32c-.46.27-.96.4-1.36.4-.77,0-1.02-.47-1.02-1.19v-3.2h2.52v-1.41ZM364.74,76.13c-.89,0-1.47.42-1.87,1.04v-.86h-1.53v7.09h1.54v-3.97c0-1.17.5-1.82,1.51-1.82.31,0,.64.04.96.18l.47-1.45c-.34-.13-.79-.19-1.1-.19h0ZM344.86,76.87c-.74-.49-1.76-.74-2.89-.74-1.79,0-2.95.86-2.95,2.27,0,1.16.86,1.87,2.45,2.09l.73.1c.85.12,1.25.34,1.25.74,0,.55-.56.86-1.62.86s-1.84-.34-2.36-.74l-.73,1.2c.85.62,1.91.92,3.07.92,2.05,0,3.23-.96,3.23-2.31,0-1.25-.93-1.9-2.48-2.12l-.73-.1c-.67-.09-1.2-.22-1.2-.7,0-.52.5-.83,1.35-.83.9,0,1.78.34,2.21.61l.67-1.25ZM386.17,76.13c-.89,0-1.47.42-1.87,1.04v-.86h-1.53v7.09h1.54v-3.97c0-1.17.5-1.82,1.51-1.82.31,0,.64.04.96.18l.47-1.45c-.34-.13-.79-.19-1.1-.19h0ZM366.3,79.85c0,2.15,1.5,3.72,3.78,3.72,1.07,0,1.78-.24,2.55-.85l-.74-1.25c-.58.42-1.19.64-1.85.64-1.23-.01-2.13-.9-2.13-2.27s.9-2.25,2.13-2.27c.67,0,1.28.22,1.85.64l.74-1.25c-.77-.61-1.48-.85-2.55-.85-2.28,0-3.78,1.57-3.78,3.72h0ZM380.74,79.85v-3.54h-1.54v.86c-.49-.64-1.23-1.04-2.24-1.04-1.99,0-3.54,1.56-3.54,3.72s1.56,3.72,3.54,3.72c1.01,0,1.75-.4,2.24-1.04v.86h1.54v-3.54ZM375,79.85c0-1.25.82-2.27,2.15-2.27s2.13.98,2.13,2.27-.86,2.27-2.13,2.27-2.15-1.02-2.15-2.27h0ZM356.4,76.13c-2.08,0-3.53,1.51-3.53,3.72s1.51,3.72,3.63,3.72c1.07,0,2.05-.27,2.91-.99l-.76-1.14c-.59.47-1.35.74-2.06.74-.99,0-1.9-.46-2.12-1.73h5.26c.01-.19.03-.39.03-.59-.01-2.21-1.38-3.72-3.37-3.72h0ZM356.37,77.51c.99,0,1.63.62,1.79,1.72h-3.68c.16-1.02.79-1.72,1.88-1.72h0ZM395.05,79.85v-6.39h-1.54v3.71c-.49-.64-1.23-1.04-2.24-1.04-1.99,0-3.54,1.56-3.54,3.72s1.56,3.72,3.54,3.72c1.01,0,1.75-.4,2.24-1.04v.86h1.54v-3.54ZM389.31,79.85c0-1.25.82-2.27,2.15-2.27s2.13.98,2.13,2.27-.86,2.27-2.13,2.27-2.15-1.02-2.15-2.27h0ZM337.24,79.85v-3.54h-1.54v.86c-.49-.64-1.23-1.04-2.24-1.04-1.99,0-3.54,1.56-3.54,3.72s1.56,3.72,3.54,3.72c1.01,0,1.75-.4,2.24-1.04v.86h1.54v-3.54ZM331.5,79.85c0-1.25.82-2.27,2.15-2.27s2.13.98,2.13,2.27-.86,2.27-2.13,2.27-2.15-1.02-2.15-2.27ZM397.62,82.37c.1,0,.19.02.28.06.09.04.16.09.23.15.06.06.12.14.15.22s.06.18.06.27-.02.19-.06.27c-.04.09-.09.16-.15.22-.07.06-.14.11-.23.15-.09.04-.18.06-.28.06s-.2-.02-.28-.06c-.09-.04-.16-.09-.23-.15-.06-.06-.12-.14-.15-.22-.04-.09-.06-.18-.06-.27s.02-.19.06-.27c.04-.09.09-.16.15-.22.06-.06.14-.11.23-.15.09-.04.18-.06.28-.06ZM397.62,83.62c.08,0,.15-.01.21-.04.07-.03.12-.07.17-.12.05-.05.09-.11.12-.17.03-.07.04-.14.04-.21s-.01-.15-.04-.21c-.03-.07-.07-.12-.12-.17-.05-.05-.11-.09-.17-.12s-.14-.04-.21-.04-.15.01-.22.04c-.07.03-.13.07-.18.12-.05.05-.09.11-.12.17-.03.07-.04.14-.04.21s.01.15.04.21c.03.07.07.12.12.17.05.05.11.09.18.12.07.03.14.04.22.04ZM397.66,82.74c.08,0,.15.02.19.06.05.04.07.09.07.15,0,.05-.02.1-.05.13-.04.04-.09.06-.15.06l.21.25h-.17l-.2-.25h-.06v.25h-.14v-.65h.3ZM397.5,82.86v.17h.16s.07,0,.09-.02c.02-.01.03-.04.03-.07s-.01-.05-.03-.06c-.02-.01-.05-.02-.09-.02h-.16ZM396.66,59.82v-.86h.35v-.18h-.88v.18h.35v.86h.19ZM398.38,59.82v-1.04h-.27l-.31.71-.31-.71h-.27v1.04h.19v-.78l.29.67h.2l.29-.68v.78h.19ZM353.66,64.98c.21.18.43.36.65.53-4.23,2.82-9.31,4.46-14.78,4.46-14.74,0-26.69-11.95-26.69-26.69s11.95-26.69,26.69-26.69c5.46,0,10.54,1.64,14.78,4.46-.22.18-.44.35-.64.53-6.29,5.47-9.89,13.38-9.89,21.7s3.61,16.23,9.89,21.7ZM372.52,16.59c-5.46,0-10.54,1.64-14.78,4.46.22.18.44.35.65.53,6.29,5.47,9.89,13.38,9.89,21.7s-3.61,16.23-9.89,21.7c-.21.18-.43.36-.65.53,4.23,2.82,9.31,4.46,14.78,4.46,14.74,0,26.69-11.95,26.69-26.69s-11.95-26.69-26.69-26.69ZM356.03,22.31c-.34.27-.68.55-1.01.84-5.62,4.89-9.18,12.1-9.18,20.14s3.56,15.24,9.18,20.14c.33.29.67.57,1.01.84.34-.27.68-.55,1.01-.84,5.62-4.89,9.18-12.1,9.18-20.14s-3.56-15.24-9.18-20.14c-.33-.29-.67-.57-1.01-.84"/>
  <g>
    <path d="M1063.33,22.83v54.7c0,1.15.94,2.09,2.09,2.09h58.08c16.26,0,29.44-13.18,29.44-29.44h0c0-16.26-13.18-29.44-29.44-29.44h-58.08c-1.15,0-2.09.94-2.09,2.09Z"/>
    <path class="cls-2" d="M1070.41,43.57h-3.71v12.96h3.69c1.96,0,3.38-.46,4.62-1.5,1.48-1.22,2.35-3.07,2.35-4.97,0-3.82-2.86-6.49-6.96-6.49ZM1073.36,53.3c-.79.72-1.83,1.03-3.46,1.03h-.68v-8.57h.68c1.63,0,2.62.29,3.46,1.05.87.78,1.4,1.98,1.4,3.23s-.52,2.49-1.4,3.27Z"/>
    <rect class="cls-2" x="1078.53" y="43.57" width="2.53" height="12.96"/>
    <path class="cls-2" d="M1087.23,48.54c-1.52-.56-1.96-.93-1.96-1.63,0-.82.79-1.44,1.88-1.44.76,0,1.38.31,2.04,1.05l1.32-1.73c-1.09-.95-2.39-1.44-3.81-1.44-2.29,0-4.04,1.59-4.04,3.71,0,1.79.81,2.7,3.19,3.55.99.35,1.49.58,1.75.74.5.33.76.8.76,1.34,0,1.05-.84,1.83-1.96,1.83-1.2,0-2.18-.6-2.76-1.73l-1.63,1.57c1.16,1.71,2.56,2.47,4.49,2.47,2.63,0,4.47-1.75,4.47-4.25,0-2.06-.85-2.99-3.73-4.04Z"/>
    <path class="cls-2" d="M1091.76,50.05c0,3.81,2.99,6.76,6.84,6.76,1.09,0,2.02-.21,3.17-.75v-2.98c-1.01,1.01-1.91,1.42-3.05,1.42-2.55,0-4.35-1.85-4.35-4.47,0-2.49,1.86-4.45,4.24-4.45,1.21,0,2.12.43,3.17,1.46v-2.97c-1.11-.56-2.02-.8-3.11-.8-3.83,0-6.9,3.01-6.9,6.78Z"/>
    <polygon class="cls-2" points="1121.81 52.27 1118.35 43.57 1115.59 43.57 1121.09 56.86 1122.45 56.86 1128.05 43.57 1125.31 43.57 1121.81 52.27"/>
    <polygon class="cls-2" points="1129.19 56.52 1136.36 56.52 1136.36 54.33 1131.72 54.33 1131.72 50.83 1136.19 50.83 1136.19 48.64 1131.72 48.64 1131.72 45.76 1136.36 45.76 1136.36 43.57 1129.19 43.57 1129.19 56.52"/>
    <path class="cls-2" d="M1146.37,47.39c0-2.43-1.67-3.83-4.59-3.83h-3.75v12.96h2.52v-5.21h.33l3.5,5.21h3.11l-4.08-5.46c1.9-.39,2.95-1.69,2.95-3.67ZM1141.3,49.53h-.74v-3.92h.78c1.57,0,2.43.66,2.43,1.92s-.86,2-2.47,2Z"/>
    <path class="cls-2" d="M1148.38,44.25c0-.23-.16-.35-.43-.35h-.37v1.14h.27v-.44l.32.44h.33l-.38-.47c.16-.04.25-.16.25-.32ZM1147.9,44.4h-.05v-.3h.05c.13,0,.21.05.21.15s-.07.15-.21.15Z"/>
    <path class="cls-2" d="M1148.01,43.47c-.55,0-1,.44-1,1s.45,1,1,1,.98-.45.98-1-.44-1-.98-1ZM1148,45.28c-.44,0-.79-.36-.79-.82s.35-.82.79-.82.79.37.79.82-.35.82-.79.82Z"/>
    <path class="cls-2" d="M1116.31,50.03c0,3.79-3.07,6.86-6.86,6.86s-6.86-3.07-6.86-6.86,3.07-6.86,6.86-6.86,6.86,3.07,6.86,6.86Z"/>
    <path class="cls-2" d="M1154.5,19.69h-89.07c-1.73,0-3.14,1.41-3.14,3.14v54.7c0,1.73,1.41,3.14,3.14,3.14h89.07c1.73,0,3.14-1.41,3.14-3.14V22.83c0-1.73-1.41-3.14-3.14-3.14ZM1152.95,50.18c0,16.26-13.18,29.44-29.44,29.44h-58.08c-1.15,0-2.09-.94-2.09-2.09V22.83c0-1.15.94-2.09,2.09-2.09h58.08c16.26,0,29.44,13.18,29.44,29.44h0Z"/>
  </g>
  <g id="Welcome">
    <g id="Desktop-HD">
      <g id="Logo">
        <g>
          <path id="Fill-1" class="cls-1" d="M881.76,47.35c0,6.96-7.88,8.21-12.32,8.5-.04,1.87.95,3.44,3.48,3.44,1.99,0,3.9-.87,5.39-1.74l1.45,4.43c-.83.58-4.11,2.45-8.75,2.45-6.06,0-8.55-3.65-8.55-8.54,0-7.05,4.69-13.97,12.74-13.97,4.07,0,6.55,1.87,6.55,5.43h0ZM874.21,46.81c-2.45,0-3.82,2.61-4.36,4.85,2.41-.12,5.81-1.28,5.81-3.52,0-.91-.71-1.33-1.45-1.33h0Z"/>
          <path id="Fill-2" class="cls-1" d="M904.66,42.58l-8.55,10.32,5.14,10.86h-7.3l-2.49-5.64-4.48,5.64h-7.59l9.21-10.98-4.77-10.2h6.97l2.28,5.51,4.27-5.51h7.3"/>
          <path id="Fill-3" class="cls-1" d="M907.57,73.31h-6.93l5.1-29.82c3.57-1.16,7.38-1.57,9.54-1.57,5.6,0,8.38,3.03,8.38,8.62,0,8.54-4.56,13.89-11.24,13.89-1.33,0-2.57-.33-3.32-.66l-1.54,9.55h0ZM909.93,59.12c.71.25,1.37.37,1.95.37,3.86,0,4.85-5.35,4.85-8.79,0-2.24-.58-3.69-2.49-3.69-.87,0-1.74.12-2.24.33l-2.07,11.77h0Z"/>
          <path id="Fill-4" class="cls-1" d="M930.35,63.76h-6.93l3.03-17.2.17-4.02h5.56l.12,2.94c1.53-2.61,3.69-3.56,5.43-3.56,1.2,0,2.49.29,3.32.83l-1.99,5.76c-.79-.41-1.78-.75-2.82-.75-1.78,0-3.19,1.08-3.57,3.03l-2.32,12.97"/>
          <path id="Fill-5" class="cls-1" d="M958.03,47.35c0,6.96-7.88,8.21-12.32,8.5-.04,1.87.95,3.44,3.48,3.44,1.99,0,3.9-.87,5.39-1.74l1.45,4.43c-.83.58-4.11,2.45-8.75,2.45-6.06,0-8.55-3.65-8.55-8.54,0-7.05,4.69-13.97,12.74-13.97,4.07,0,6.55,1.87,6.55,5.43h0ZM950.48,46.81c-2.45,0-3.82,2.61-4.36,4.85,2.41-.12,5.81-1.28,5.81-3.52,0-.91-.71-1.33-1.45-1.33h0Z"/>
          <path id="Fill-6" class="cls-1" d="M959.81,57.25c1.41.95,3.98,2.11,5.93,2.11,1.37,0,2.24-.54,2.24-1.66s-1.83-1.7-3.48-2.32c-2.2-.83-4.94-2.07-4.94-6.05,0-4.85,3.94-7.42,9.04-7.42,3.32,0,6.47,1.53,8.13,3.44l-3.53,3.61c-1.58-1.37-3.15-2.11-4.52-2.11s-2.16.7-2.16,1.58c0,1.45,1.37,1.86,3.86,2.86,2.2.87,4.6,2.24,4.6,5.76,0,4.77-3.82,7.38-9.46,7.38-3.98,0-7.14-1.53-8.3-2.49l2.57-4.68"/>
          <path id="Fill-7" class="cls-1" d="M978.31,57.25c1.41.95,3.98,2.11,5.93,2.11,1.37,0,2.24-.54,2.24-1.66s-1.83-1.7-3.48-2.32c-2.2-.83-4.94-2.07-4.94-6.05,0-4.85,3.94-7.42,9.04-7.42,3.32,0,6.47,1.53,8.13,3.44l-3.53,3.61c-1.58-1.37-3.15-2.11-4.52-2.11s-2.16.7-2.16,1.58c0,1.45,1.37,1.86,3.86,2.86,2.2.87,4.6,2.24,4.6,5.76,0,4.77-3.82,7.38-9.46,7.38-3.98,0-7.14-1.53-8.3-2.49l2.57-4.68"/>
          <path id="Fill-8" class="cls-1" d="M860.23,58.17h-22.43l-7.75,5.59h32.96c-1.56-1.37-2.45-3.31-2.78-5.59"/>
          <path id="Fill-9" class="cls-1" d="M866.76,42.23h-19.39l-7.75,5.59h22.37c1.13-2.24,2.73-4.18,4.76-5.59"/>
          <path id="Fill-10" class="cls-1" d="M861.04,50.11h-18.1l-7.75,5.59h24.89c.03-1.91.36-3.81.96-5.59"/>
          <path id="Fill-11" class="cls-1" d="M876.44,32.37c.15-.13.23-.35.23-.65s-.08-.52-.24-.63c-.16-.12-.42-.18-.78-.18h-1.54v1.65h1.58c.34,0,.59-.06.74-.19"/>
          <path id="Fill-12" class="cls-1" d="M875.74,33.83h-1.64v1.85h1.69c.38,0,.66-.07.84-.2.17-.13.26-.38.26-.75,0-.32-.09-.56-.26-.7-.17-.14-.47-.21-.88-.21"/>
          <path id="Fill-13" class="cls-1" d="M869.31,39.49h12.45v-12.43h-12.45v12.43ZM878.62,35.79c-.12.27-.3.5-.54.7-.25.19-.56.34-.94.44-.38.1-.84.15-1.37.15h-3.5v-7.61h3.45c.93,0,1.62.17,2.08.52.46.35.69.82.69,1.43,0,.43-.1.77-.31,1.04-.21.27-.48.47-.82.59v.02c.96.24,1.44.84,1.44,1.8,0,.35-.06.65-.18.92h0Z"/>
          <path id="Fill-14" class="cls-1" d="M882.56,39.49h12.45v-12.43h-12.45v12.43ZM890.04,37.08l-2.03-3.21h-.87v3.21h-1.85v-7.61h1.85v3.02h.89l1.98-3.02h2.12l-2.46,3.61,2.59,4h-2.23Z"/>
          <path id="Fill-15" class="cls-1" d="M895.96,39.49h12.45v-12.43h-12.45v12.43ZM906.75,37.08h-1.8v-3.88l.02-.82h-.04s-.33.76-.33.76l-1.8,3.94h-1.31l-1.79-3.93-.33-.77h-.02s.01.83.01.83v3.87h-1.74v-7.61h2.18l2.04,4.45.33.76h.04l.33-.76,2.05-4.45h2.18v7.61h0Z"/>
        </g>
      </g>
    </g>
  </g>
</svg>